# xmcd
#
# Track frame offsets:
#	150
#	19396
#	37994
#	53617
#	70456
#	90745
#	105582
#	125086
#	143927
#	163458
#	180819
#	198667
#	215191
#	232176
#	247608
#	262911
#	287535
#	310629
#
# Disc length: 4366 seconds
#
# Revision: 0
# Processed by: cddbd v1.4PL0 Copyright (c) Steve Scherf et al.
# Submitted via: audiograbber 1.82.02
#
DISCID=05110c12
DTITLE=Jim Worton - Real To Reel
DYEAR=1998
DGENRE=Country
TTITLE0=Dance The Night Away
TTITLE1=A 1000 Miles From Nowhere
TTITLE2=Gonna Get A Life
TTITLE3=Missing You
TTITLE4=Whisky You Tricked Me
TTITLE5=Hi-Tec Redneck
TTITLE6=I Swear
TTITLE7=Down At The Twist and Shout
TTITLE8=Little Rock
TTITLE9=Honky - Tonk Attitude
TTITLE10=Put The Night On Hold
TTITLE11=Sold
TTITLE12=I'll Never Forgive My Heart
TTITLE13=Easy Come Easy Go
TTITLE14=Heataches Get To Outlaws Too
TTITLE15=The Thunder Rolls
TTITLE16=I Ride A Horse
TTITLE17=Ghost In This House
EXTD=
EXTT0=
EXTT1=
EXTT2=
EXTT3=
EXTT4=
EXTT5=
EXTT6=
EXTT7=
EXTT8=
EXTT9=
EXTT10=
EXTT11=
EXTT12=
EXTT13=
EXTT14=
EXTT15=
EXTT16=
EXTT17=
PLAYORDER=
